# xmcd
#
# Track frame offsets:
#	150
#	21154
#	38404
#	62594
#	79528
#	93549
#	115909
#	140434
#	157665
#	178824
#	199877
#	217091
#	241386
#	258326
#	272347
#	294418
#	318984
#
# Disc length: 4479 seconds
#
# Revision: 1
# Processed by: cddbd v1.5.2PL0 Copyright (c) Steve Scherf et al.
# Submitted via: audiograbber 1.82.01
#
DISCID=e6117d11
DTITLE=Pr. Melvin - Muda minha Sorte
DYEAR=2010
DGENRE=Gospel
TTITLE0=Cachoeira de Misterio
TTITLE1=Mical
TTITLE2=Filho de Davi
TTITLE3=Penina
TTITLE4=Como você imaginou
TTITLE5=Já ouviu a voz de Deus
TTITLE6=Do jeito que você entrou
TTITLE7=Vara de Amendoeira
TTITLE8=Pastor
TTITLE9=PB1
TTITLE10=PB2
TTITLE11=PB3
TTITLE12=PB4
TTITLE13=PB5
TTITLE14=PB6
TTITLE15=PB7
TTITLE16=PB8
EXTD=
EXTT0=
EXTT1=
EXTT2=
EXTT3=
EXTT4=
EXTT5=
EXTT6=
EXTT7=
EXTT8=
EXTT9=
EXTT10=
EXTT11=
EXTT12=
EXTT13=
EXTT14=
EXTT15=
EXTT16=
PLAYORDER=
